<svg width="56" height="56" viewBox="0 0 56 56" xmlns="http://www.w3.org/2000/svg">
  <!-- Hair back -->
  <ellipse cx="24" cy="18" rx="10" ry="7" fill="#1a1a2e"/>
  <ellipse cx="32" cy="18" rx="10" ry="7" fill="#1a1a2e"/>

  <!-- Hair side curls -->
  <path d="M14 22 Q10 17 14 13 Q18 9 16 17" fill="#1a1a2e"/>
  <path d="M42 22 Q46 17 42 13 Q38 9 40 17" fill="#1a1a2e"/>

  <!-- Pigtails -->
  <path d="M14 20 Q6 24 9 31 Q12 37 15 31" fill="#1a1a2e"/>
  <path d="M42 20 Q50 24 47 31 Q44 37 41 31" fill="#1a1a2e"/>

  <!-- Robot body -->
  <rect x="12" y="22" width="32" height="28" rx="8" fill="#f0f4ff" stroke="#3B5BDB" stroke-width="1.5"/>

  <!-- Cheek blush -->
  <ellipse cx="18" cy="35" rx="3.5" ry="2" fill="#FFB3C6" opacity="0.6"/>
  <ellipse cx="38" cy="35" rx="3.5" ry="2" fill="#FFB3C6" opacity="0.6"/>

  <!-- Eyes -->
  <circle cx="22" cy="31" r="4" fill="white"/>
  <circle cx="34" cy="31" r="4" fill="white"/>
  <circle cx="22" cy="31" r="2.2" fill="#3B5BDB"/>
  <circle cx="34" cy="31" r="2.2" fill="#3B5BDB"/>

  <!-- Eye shine -->
  <circle cx="23" cy="30" r="0.9" fill="white"/>
  <circle cx="35" cy="30" r="0.9" fill="white"/>

  <!-- Smile -->
  <path d="M21 39 Q28 44 35 39" fill="none" stroke="#3B5BDB" stroke-width="1.5" stroke-linecap="round"/>

  <!-- Antenna -->
  <line x1="28" y1="22" x2="28" y2="14" stroke="#3B5BDB" stroke-width="1.5" stroke-linecap="round"/>
  <circle cx="28" cy="12" r="2.5" fill="#3B5BDB"/>

  <!-- Arms -->
  <rect x="4" y="28" width="8" height="4" rx="2" fill="#f0f4ff" stroke="#3B5BDB" stroke-width="1"/>
  <rect x="44" y="28" width="8" height="4" rx="2" fill="#f0f4ff" stroke="#3B5BDB" stroke-width="1"/>
</svg>